<?xml version="1.0" encoding="utf-8"?>
<!-- Generator: Adobe Illustrator 24.1.2, SVG Export Plug-In . SVG Version: 6.00 Build 0)  -->
<svg version="1.1" id="Layer_1" xmlns="http://www.w3.org/2000/svg" xmlns:xlink="http://www.w3.org/1999/xlink" x="0px" y="0px"
	 viewBox="0 0 87 84.9" style="enable-background:new 0 0 87 84.9;" xml:space="preserve">
<style type="text/css">
	.st0{fill-rule:evenodd;clip-rule:evenodd;fill:#FFFFFF;}
	.st1{fill:#FFFFFF;}
</style>
<g>
	<g>
		<path class="st0" d="M43.5,0C19.5,0,0,19.5,0,43.5C0,62.7,12.5,79,29.7,84.8c2.2,0.4,3-0.9,3-2.1c0-1,0-4.5-0.1-8.1
			C20.6,77.2,18,69.5,18,69.5c-2-5-4.8-6.4-4.8-6.4c-3.9-2.7,0.3-2.6,0.3-2.6c4.4,0.3,6.7,4.5,6.7,4.5c3.9,6.6,10.2,4.7,12.7,3.6
			c0.4-2.8,1.5-4.7,2.8-5.8c-9.7-1.1-19.8-4.8-19.8-21.5c0-4.7,1.7-8.6,4.5-11.7c-0.5-1.1-1.9-5.5,0.4-11.5c0,0,3.7-1.2,12,4.5
			c3.5-1,7.2-1.4,10.9-1.5c3.7,0,7.4,0.5,10.9,1.5c8.3-5.6,12-4.5,12-4.5c2.4,6,0.9,10.4,0.4,11.5c2.8,3,4.5,6.9,4.5,11.7
			c0,16.7-10.2,20.4-19.9,21.5c1.6,1.4,3,4,3,8.1c0,5.8,0,10.5,0,11.9c0,1.2,0.8,2.5,3,2.1C74.6,79,87,62.7,87,43.5
			C87,19.5,67.5,0,43.5,0z"/>
		<path class="st1" d="M16.5,62.5c-0.1,0.2-0.4,0.3-0.7,0.1c-0.3-0.1-0.5-0.4-0.4-0.7c0.1-0.2,0.4-0.3,0.7-0.1
			C16.4,61.9,16.6,62.2,16.5,62.5L16.5,62.5z M15.9,62.1"/>
		<path class="st1" d="M18.2,64.4c-0.2,0.2-0.6,0.1-0.9-0.2c-0.3-0.3-0.3-0.7-0.1-0.9c0.2-0.2,0.6-0.1,0.9,0.2
			C18.4,63.8,18.5,64.2,18.2,64.4L18.2,64.4z M17.8,64"/>
		<path class="st1" d="M20,66.9c-0.3,0.2-0.7,0-1-0.4c-0.3-0.4-0.3-0.9,0-1c0.3-0.2,0.7,0,1,0.4C20.2,66.3,20.2,66.7,20,66.9
			L20,66.9z M20,66.9"/>
		<path class="st1" d="M22.3,69.3c-0.2,0.3-0.7,0.2-1.1-0.2c-0.4-0.4-0.5-0.8-0.2-1.1c0.2-0.3,0.8-0.2,1.1,0.2
			C22.4,68.6,22.6,69.1,22.3,69.3L22.3,69.3z M22.3,69.3"/>
		<path class="st1" d="M25.5,70.8c-0.1,0.3-0.6,0.5-1.1,0.4c-0.5-0.1-0.8-0.5-0.7-0.9c0.1-0.3,0.6-0.5,1.1-0.3
			C25.3,70,25.6,70.4,25.5,70.8L25.5,70.8z M25.5,70.8"/>
		<path class="st1" d="M29.1,71c0,0.4-0.4,0.7-0.9,0.7c-0.5,0-0.9-0.3-0.9-0.6c0-0.4,0.4-0.7,0.9-0.7C28.7,70.4,29.1,70.7,29.1,71
			L29.1,71z M29.1,71"/>
		<path class="st1" d="M32.4,70.5c0.1,0.3-0.3,0.7-0.8,0.8c-0.5,0.1-1-0.1-1-0.5c-0.1-0.4,0.3-0.7,0.8-0.8
			C31.9,69.9,32.4,70.1,32.4,70.5L32.4,70.5z M32.4,70.5"/>
	</g>
</g>
</svg>
